<?xml version="1.0" encoding="UTF-8" standalone="no"?>
<svg
   xmlns:dc="http://purl.org/dc/elements/1.1/"
   xmlns:cc="http://creativecommons.org/ns#"
   xmlns:rdf="http://www.w3.org/1999/02/22-rdf-syntax-ns#"
   xmlns:svg="http://www.w3.org/2000/svg"
   xmlns="http://www.w3.org/2000/svg"
   xmlns:sodipodi="http://sodipodi.sourceforge.net/DTD/sodipodi-0.dtd"
   xmlns:inkscape="http://www.inkscape.org/namespaces/inkscape"
   width="793.70081"
   height="1122.5197"
   viewBox="0 0 210 297"
   version="1.1"
   id="svg8"
   inkscape:version="1.0.2 (e86c870879, 2021-01-15, custom)"
   sodipodi:docname="invaders.svg">
  <defs
     id="defs2" />
  <sodipodi:namedview
     id="base"
     pagecolor="#ffffff"
     bordercolor="#666666"
     borderopacity="1.0"
     inkscape:pageopacity="0.0"
     inkscape:pageshadow="2"
     inkscape:zoom="0.46437508"
     inkscape:cx="1216.1007"
     inkscape:cy="926.12229"
     inkscape:document-units="px"
     inkscape:current-layer="layer1"
     inkscape:document-rotation="0"
     showgrid="false"
     units="px"
     inkscape:showpageshadow="false"
     showborder="false"
     inkscape:snap-global="false"
     inkscape:window-width="1920"
     inkscape:window-height="1017"
     inkscape:window-x="-8"
     inkscape:window-y="-8"
     inkscape:window-maximized="1" />
  <metadata
     id="metadata5">
    <rdf:RDF>
      <cc:Work
         rdf:about="">
        <dc:format>image/svg+xml</dc:format>
        <dc:type
           rdf:resource="http://purl.org/dc/dcmitype/StillImage" />
        <dc:title></dc:title>
      </cc:Work>
    </rdf:RDF>
  </metadata>
  <g
     inkscape:label="Layer 1"
     inkscape:groupmode="layer"
     id="layer1">
    <rect
       style="fill:#000000;stroke-width:0.84983"
       id="rect20275"
       width="105.83334"
       height="105.83334"
       x="356.26947"
       y="245.03665" />
    <rect
       style="fill:#000000;stroke-width:0.84983"
       id="rect20277"
       width="105.83334"
       height="105.83334"
       x="250.43633"
       y="245.03665" />
    <rect
       style="fill:#000000;stroke-width:0.84983"
       id="rect20279"
       width="105.83334"
       height="105.83334"
       x="144.60289"
       y="245.03665" />
    <rect
       style="fill:#000000;stroke-width:0.84983"
       id="rect20281"
       width="105.83334"
       height="105.83334"
       x="38.769558"
       y="245.03665" />
    <rect
       style="fill:#000000;stroke-width:0.84983"
       id="rect20283"
       width="105.83334"
       height="105.83334"
       x="-67.063782"
       y="245.03665" />
    <rect
       style="fill:#000000;stroke-width:0.84983"
       id="rect20285"
       width="105.83334"
       height="105.83334"
       x="462.1026"
       y="245.03665" />
    <rect
       style="fill:#000000;stroke-width:0.84983"
       id="rect20167"
       width="105.83334"
       height="105.83334"
       x="356.26947"
       y="139.20322" />
    <rect
       style="fill:#000000;stroke-width:0.84983"
       id="rect20169"
       width="105.83334"
       height="105.83334"
       x="250.43633"
       y="139.20322" />
    <rect
       style="fill:#000000;stroke-width:0.84983"
       id="rect20171"
       width="105.83334"
       height="105.83334"
       x="144.60289"
       y="139.20322" />
    <rect
       style="fill:#000000;stroke-width:0.84983"
       id="rect20173"
       width="105.83334"
       height="105.83334"
       x="38.769558"
       y="139.20322" />
    <rect
       style="fill:#000000;stroke-width:0.84983"
       id="rect20175"
       width="105.83334"
       height="105.83334"
       x="-67.063782"
       y="139.20322" />
    <rect
       style="fill:#000000;stroke-width:0.84983"
       id="rect20177"
       width="105.83334"
       height="105.83334"
       x="462.1026"
       y="139.20322" />
    <rect
       style="fill:#000000;stroke-width:0.84983"
       id="rect20131"
       width="105.83334"
       height="105.83334"
       x="356.26947"
       y="33.369892" />
    <rect
       style="fill:#000000;stroke-width:0.84983"
       id="rect20127"
       width="105.83334"
       height="105.83334"
       x="250.43633"
       y="33.369892" />
    <rect
       style="fill:#000000;stroke-width:0.84983"
       id="rect20125"
       width="105.83334"
       height="105.83334"
       x="144.60289"
       y="33.369892" />
    <rect
       style="fill:#000000;stroke-width:0.84983"
       id="rect20123"
       width="105.83334"
       height="105.83334"
       x="38.769558"
       y="33.369892" />
    <rect
       style="fill:#000000;stroke-width:0.84983"
       id="rect833"
       width="105.83334"
       height="105.83334"
       x="-67.063782"
       y="33.369892" />
    <path
       style="fill:#fefefe;stroke-width:0.826823"
       d="m -34.817683,115.22537 v -4.13412 h -4.134114 -4.134115 v -8.26823 -8.268223 h -4.134115 -4.134115 v 8.268223 8.26823 h -4.134113 -4.134115 V 98.688912 86.286567 h 4.134115 4.134113 v -4.134115 -4.134115 h 4.134115 4.134115 v -4.134115 -4.134115 h 4.134115 4.134114 v -4.134115 -4.134115 h -4.134114 -4.134115 v -4.134115 -4.134115 h 4.134115 4.134114 v 4.134115 4.134115 h 4.134115 4.134114 v 4.134115 4.134115 h 12.402344 12.4023431 v -4.134115 -4.134115 h 4.1341145 4.1341149 v -4.134115 -4.134115 h 4.1341145 4.134115 v 4.134115 4.134115 H 10.657577 6.5234625 v 4.134115 4.134115 h 4.1341145 4.134115 v 4.134115 4.134115 h 4.134115 4.134113 v 4.134115 4.134115 h 4.134115 4.134115 V 98.688912 111.09125 H 27.194035 23.05992 v -8.26823 -8.268223 h -4.134113 -4.134115 v 8.268223 8.26823 H 10.657577 6.5234625 v 4.13412 4.13411 h -8.2682294 -8.2682291 v -4.13411 -4.13412 h 8.2682291 8.2682294 v -4.13411 -4.13412 H -14.14711 -34.817683 v 4.13412 4.13411 h 8.268229 8.268229 v 4.13412 4.13411 h -8.268229 -8.268229 z m 8.268229,-33.072918 v -4.134115 h -4.134114 -4.134115 v 4.134115 4.134115 h 4.134115 4.134114 z m 33.0729165,0 V 78.018337 H 2.3893476 -1.7447669 v 4.134115 4.134115 h 4.1341145 4.1341149 z"
       id="path20057" />
    <path
       style="fill:#fefefe;stroke-width:0.826823"
       d="m 54.479197,115.22537 v -4.13412 h 4.134113 4.134115 v -4.13411 -4.13411 H 58.61331 54.479197 V 98.68891 94.554796 H 50.345082 46.210967 V 78.018338 61.481878 h 4.134115 4.134115 v 8.268229 8.268231 h 4.134113 4.134115 v -4.134115 -4.134116 h 4.134115 4.134115 V 65.615993 61.481878 H 66.88154 62.747425 v -4.134116 -4.134115 h 4.134115 4.134115 v 4.134115 4.134116 h 4.134114 4.134115 v 4.134115 4.134114 h 12.402344 12.402332 v -4.134114 -4.134115 h 4.13413 4.13411 v -4.134116 -4.134115 h 4.13411 4.13412 v 4.134115 4.134116 h -4.13412 -4.13411 v 4.134115 4.134114 h 4.13411 4.13412 v 4.134116 4.134115 h 4.13412 4.13411 v -8.268231 -8.268229 h 4.13412 4.13411 v 16.53646 16.536458 h -4.13411 -4.13412 v 4.134114 4.13412 h -4.13411 -4.13412 v 4.13411 4.13411 h 4.13412 4.13411 v 4.13412 4.13411 h -4.13411 -4.13412 v -4.13411 -4.13412 h -4.13412 -4.13411 v -4.13411 -4.13411 H 91.686228 71.015655 v 4.13411 4.13411 H 66.88154 62.747425 v 4.13412 4.13411 H 58.61331 54.479197 Z M 79.283884,82.152453 v -4.134115 h -4.134115 -4.134114 v 4.134115 4.134111 h 4.134114 4.134115 z m 33.072916,0 v -4.134115 h -4.13411 -4.13413 v 4.134115 4.134111 h 4.13413 4.13411 z"
       id="path20073" />
    <path
       style="fill:#fefefe;stroke-width:0.826823"
       d="m 164.44664,115.22536 v -4.13411 h 4.13411 4.13412 v -4.13411 -4.13413 h 4.13412 4.13411 v -4.134105 -4.134113 h -8.26823 -8.26823 v -8.268229 -8.268229 h 4.13411 4.13412 V 73.88422 69.750104 h 4.13412 4.13411 V 65.61599 61.481875 h 4.13412 4.13411 V 57.34776 53.213645 h 8.26823 8.26823 v 4.134115 4.134115 h 4.13411 4.13411 v 4.134115 4.134114 h 4.13412 4.13411 v 4.134116 4.134114 h 4.13412 4.13412 v 8.268229 8.268229 h -8.26824 -8.26823 v 4.134113 4.134105 h 4.13412 4.13411 v 4.13413 4.13411 h 4.13412 4.13412 v 4.13411 4.13412 h -4.13412 -4.13412 v -4.13412 -4.13411 h -4.13411 -4.13412 v 4.13411 4.13412 h -4.13411 -4.13411 v -4.13412 -4.13411 h -8.26823 -8.26823 v 4.13411 4.13412 h -4.13411 -4.13412 v -4.13412 -4.13411 h -4.13411 -4.13412 v 4.13411 4.13412 h -4.13412 -4.13411 z m 24.80469,-8.26822 v -4.13413 h 8.26823 8.26823 v 4.13413 4.13411 h 4.13411 4.13411 v -4.13411 -4.13413 h -4.13411 -4.13411 v -4.134105 -4.134113 h -8.26823 -8.26823 v 4.134113 4.134105 h -4.13411 -4.13412 v 4.13413 4.13411 h 4.13412 4.13411 z m 0,-24.804691 v -4.134115 h -4.13411 -4.13412 v 4.134115 4.134114 h 4.13412 4.13411 z m 24.80468,0 v -4.134115 h -4.13411 -4.13411 v 4.134115 4.134114 h 4.13411 4.13411 z"
       id="path20099" />
    <path
       style="fill:#fefefe;stroke-width:0.826823"
       d="m 286.81653,115.22536 v -4.13411 h -4.13411 -4.13411 v -4.13411 -4.13412 h 4.13411 4.13411 v -4.134114 -4.134114 h -8.26822 -8.26823 v -8.268227 -8.268228 h 4.13411 4.13412 V 73.884224 69.75011 h 4.13411 4.13411 v -4.134123 -4.134114 h 4.13412 4.13411 V 57.34776 53.213646 h 8.26823 8.26824 v 4.134114 4.134113 h 4.13411 4.13411 v 4.134114 4.134123 h 4.13412 4.13411 v 4.134114 4.134113 h 4.13411 4.13412 v 8.268228 8.268227 h -8.26823 -8.26823 v 4.134114 4.134114 h 4.13412 4.13411 v 4.13412 4.13411 h -4.13411 -4.13412 v 4.13411 4.13412 h -4.13411 -4.13411 v -4.13412 -4.13411 h 4.13411 4.13411 v -4.13411 -4.13412 h -4.13411 -4.13411 v -4.134114 -4.134114 h -8.26824 -8.26823 v 4.134114 4.134114 h -4.13411 -4.13412 v 4.13412 4.13411 h 4.13412 4.13411 v 4.13411 4.13412 h -4.13411 -4.13412 z m 8.26823,-33.072909 v -4.134114 h -4.13411 -4.13412 v 4.134114 4.134114 h 4.13412 4.13411 z m 24.80469,0 v -4.134114 h -4.13411 -4.13411 v 4.134114 4.134114 h 4.13411 4.13411 z"
       id="path20115" />
    <rect
       style="fill:#000000;stroke-width:0.84983"
       id="rect20133"
       width="105.83334"
       height="105.83334"
       x="462.1026"
       y="33.369892" />
    <path
       style="fill:#fefefe;stroke-width:0.826823"
       d="m 384.38145,115.22537 v -4.13412 h -4.13411 -4.13412 v -4.13411 -4.13412 h 4.13412 4.13411 V 98.688917 94.554794 H 371.97911 359.57676 V 82.152453 69.750107 h 4.13412 4.13411 v -4.134115 -4.134116 h 12.40235 12.40234 v -4.134115 -4.134115 h 16.53645 16.53647 v 4.134115 4.134115 h 12.40234 12.40235 v 4.134116 4.134115 h 4.13411 4.13412 v 12.402346 12.402341 h -12.40235 -12.40234 v 4.134123 4.134103 h 4.13411 4.13412 v 4.13412 4.13411 h -4.13412 -4.13411 v 4.13412 4.13411 h -4.13411 -4.13412 v -4.13411 -4.13412 h 4.13412 4.13411 v -4.13411 -4.13412 h -8.26823 -8.26824 v 4.13412 4.13411 h -8.26823 -8.26822 v -4.13411 -4.13412 h -8.26823 -8.26823 v 4.13412 4.13411 h 4.13412 4.13411 v 4.13412 4.13411 h -4.13411 -4.13412 z m 33.07291,-16.536453 v -4.134123 h -8.26823 -8.26822 v 4.134123 4.134103 h 8.26822 8.26823 z M 400.91791,82.152453 v -4.134115 h -8.26823 -8.26823 v 4.134115 4.134114 h 8.26823 8.26823 z m 33.07292,0 v -4.134115 h -8.26823 -8.26824 v 4.134115 4.134114 h 8.26824 8.26823 z"
       id="path20149" />
    <path
       style="fill:#fefefe;stroke-width:0.826823"
       d="m 465.4099,115.22536 v -4.13412 h 8.26823 8.26822 v -4.13411 -4.13411 h 4.13412 4.13411 V 98.688909 94.554795 H 477.81224 465.4099 V 82.15245 69.750105 h 4.13411 4.13412 v -4.134114 -4.134115 h 12.40234 12.40235 v -4.134115 -4.134115 h 16.53644 16.53647 v 4.134115 4.134115 h 12.40234 12.40234 v 4.134115 4.134114 h 4.13411 4.13412 V 82.15245 94.554795 H 552.2263 539.82396 v 4.134114 4.134111 h 4.13411 4.13411 v 4.13411 4.13411 h 8.26823 8.26823 v 4.13412 4.13412 h -8.26823 -8.26823 v -4.13412 -4.13412 h -8.26822 -8.26823 v -4.13411 -4.13411 h -4.13412 -4.1341 v 4.13411 4.13411 h -8.26825 -8.26821 v -4.13411 -4.13411 h -4.13413 -4.1341 v 4.13411 4.13411 h -8.26824 -8.26823 v 4.13412 4.13412 h -8.26822 -8.26823 z m 57.8776,-16.536451 v -4.134114 h -8.26824 -8.26822 v 4.134114 4.134111 h 8.26822 8.26824 z M 506.75104,82.15245 v -4.134115 h -8.26822 -8.26824 v 4.134115 4.134115 h 8.26824 8.26822 z m 33.07292,0 v -4.134115 h -8.26823 -8.26823 v 4.134115 4.134115 h 8.26823 8.26823 z"
       id="path20165" />
    <path
       style="fill:#fefefe;stroke-width:0.826823"
       d="m -38.951799,221.05869 v -4.13411 h 4.134122 4.134114 v -4.13412 -4.13411 h -4.134114 -4.134122 v -4.13411 -4.13412 h -4.134114 -4.134113 v 8.26823 8.26823 h -4.134114 -4.134113 v -12.40234 -12.40235 h 4.134113 4.134114 v -4.13412 -4.13411 h 4.134113 4.134114 v -4.13411 -4.13412 h 4.134122 4.134114 v -4.13411 -4.13411 h -4.134114 -4.134122 v -4.13412 -4.13412 h 4.134122 4.134114 v 4.13412 4.13412 h 4.134113 4.134114 v 4.13411 4.13411 h 8.268227 8.2682259 v -4.13411 -4.13411 h 4.1341135 4.1341135 v -4.13412 -4.13412 h 4.1341134 4.1341137 v 4.13412 4.13412 H 6.5234573 2.3893439 v 4.13411 4.13411 h 4.1341134 4.1341137 v 4.13412 4.13411 h 4.134123 4.134113 v 4.13411 4.13412 h 4.134114 4.134113 v 12.40235 12.40234 h -4.134113 -4.134114 v -8.26823 -8.26823 h -4.134113 -4.134123 v 4.13412 4.13411 H 6.5234573 2.3893439 v 4.13411 4.13412 h 4.1341134 4.1341137 v 4.13411 4.13411 H 6.5234573 2.3893439 v -4.13411 -4.13411 h -4.1341135 -4.1341135 v -4.13412 -4.13411 h -8.2682259 -8.268227 v 4.13411 4.13412 h -4.134114 -4.134113 v 4.13411 4.13411 h -4.134114 -4.134122 z m 16.536463,-33.07292 v -4.13411 h -4.134114 -4.134113 v 4.13411 4.13412 h 4.134113 4.134114 z m 24.8046799,0 v -4.13411 h -4.1341135 -4.1341135 v 4.13411 4.13412 h 4.1341135 4.1341135 z"
       id="path20193" />
    <path
       style="fill:#fefefe;stroke-width:0.826823"
       d="m 66.88154,221.05869 v -4.13412 h 4.134113 4.134114 v -4.13411 -4.13412 H 71.015653 66.88154 v -4.13412 -4.13411 h -4.134112 -4.134115 v 8.26823 8.26823 H 54.4792 50.345085 v -12.40235 -12.40234 h 4.134115 4.134113 v -4.13411 -4.13412 h 4.134115 4.134112 v -4.13411 -4.13412 h 4.134113 4.134114 v -4.13412 -4.13411 h 4.134123 4.134114 v 4.13411 4.13412 h 8.268227 8.268227 v -4.13412 -4.13411 h 4.134112 4.13411 v 4.13411 4.13412 h 4.13411 4.13412 v 4.13412 4.13411 h 4.13411 4.13412 v 4.13412 4.13411 h 4.13412 4.13411 v 12.40234 12.40235 h -4.13411 -4.13412 v -8.26823 -8.26823 h -4.13412 -4.13411 v 4.13411 4.13412 h -4.13412 -4.13411 v 4.13412 4.13411 h 4.13411 4.13412 v 4.13412 4.13411 h -8.26823 -8.268222 v -8.26823 -8.26823 h -8.268227 -8.268227 v 8.26823 8.26823 H 75.149767 66.88154 Z m 16.536464,-24.8047 v -4.13411 H 79.28389 75.149767 v 4.13411 4.13412 h 4.134123 4.134114 z m 24.804676,0 v -4.13411 h -4.13411 -4.134112 v 4.13411 4.13412 h 4.134112 4.13411 z"
       id="path20209" />
    <path
       style="fill:#fefefe;stroke-width:0.826823"
       d="m 176.849,221.05869 v -4.13411 h -4.13413 -4.13411 v -8.26823 -8.26824 h 4.13411 4.13413 v -4.13411 -4.13411 h -4.13413 -4.13411 v -8.26823 -8.26823 h 4.13411 4.13413 v -4.13412 -4.13411 h -4.13413 -4.13411 v -4.13412 -4.13411 h 4.13411 4.13413 v 4.13411 4.13412 h 20.67056 20.67057 v -4.13412 -4.13411 h 4.13411 4.13413 v 4.13411 4.13412 h -4.13413 -4.13411 v 4.13411 4.13412 h 4.13411 4.13413 v 8.26823 8.26823 h -4.13413 -4.13411 v 4.13411 4.13411 h 4.13411 4.13413 v 8.26824 8.26823 h -4.13413 -4.13411 v 4.13411 4.13411 h -8.26823 -8.26822 v -4.13411 -4.13411 h 8.26822 8.26823 v -8.26823 -8.26824 h -4.13411 -4.13412 v 4.13412 4.13412 h -4.13411 -4.13411 v -4.13412 -4.13412 h -4.13412 -4.13411 v 4.13412 4.13412 h -4.13411 -4.13412 v -4.13412 -4.13412 h -4.13411 -4.13411 v 8.26824 8.26823 h 8.26822 8.26823 v 4.13411 4.13411 h -8.26823 -8.26822 z m 16.53645,-37.20703 v -8.26823 h -4.13411 -4.13412 v 8.26823 8.26823 h 4.13412 4.13411 z m 16.53645,0 v -8.26823 h -4.13411 -4.13411 v 8.26823 8.26823 h 4.13411 4.13411 z"
       id="path20225" />
    <path
       style="fill:#fefefe;stroke-width:0.826823"
       d="m 274.41419,221.05869 v -4.13411 h 4.13411 4.13413 v -4.13412 -4.13411 h 4.13411 4.13411 v -4.13411 -4.13412 h -4.13411 -4.13411 v -4.13412 -4.13411 h -4.13413 -4.13411 v -8.26823 -8.26823 h 4.13411 4.13413 v -4.13411 -4.13412 h -4.13413 -4.13411 v -4.13412 -4.13411 h 4.13411 4.13413 v 4.13411 4.13412 h 20.67056 20.67057 v -4.13412 -4.13411 h 4.13411 4.13413 v 4.13411 4.13412 h -4.13413 -4.13411 v 4.13412 4.13411 h 4.13411 4.13413 v 8.26823 8.26823 h -4.13413 -4.13411 v 4.13411 4.13412 h -4.13411 -4.13412 v 4.13412 4.13411 h 4.13412 4.13411 v 4.13411 4.13412 h 4.13411 4.13413 v 4.13411 4.13411 h -4.13413 -4.13411 v -4.13411 -4.13411 h -4.13411 -4.13412 v -4.13412 -4.13411 h -4.13411 -4.13411 v -4.13411 -4.13412 h -4.13412 -4.13411 v 4.13412 4.13411 h -4.13411 -4.13412 v 4.13411 4.13412 h -4.13411 -4.13411 v 4.13411 4.13411 h -4.13413 -4.13411 z m 24.80469,-37.20703 v -8.26823 h -4.13411 -4.13412 v 8.26823 8.26823 h 4.13412 4.13411 z m 16.53645,0 v -8.26823 h -4.13411 -4.13411 v 8.26823 8.26823 h 4.13411 4.13411 z"
       id="path20241" />
    <path
       style="fill:#fefefe;stroke-width:0.826823"
       d="m 371.97911,221.05869 v -4.13411 h 4.13411 4.13412 v -4.13412 -4.13411 h 4.13411 4.13412 v -4.13411 -4.13412 h 4.13412 4.13411 v -4.13412 -4.13411 h -12.40235 -12.40234 v -8.26823 -8.26823 h 4.13411 4.13412 v -4.13411 -4.13411 h 4.13411 4.13412 v -4.13413 -4.13411 h 20.67057 20.67057 v 4.13411 4.13413 h 4.13411 4.13412 v 4.13411 4.13411 h 4.13412 4.13411 v 8.26823 8.26823 h -12.40235 -12.40234 v 4.13411 4.13412 h 4.13411 4.13412 v 4.13412 4.13411 h 4.13411 4.13412 v 4.13411 4.13412 h 4.13412 4.13411 v 4.13411 4.13411 h -4.13411 -4.13412 v -4.13411 -4.13411 h -4.13412 -4.13411 v -4.13412 -4.13411 h -4.13412 -4.13411 v -4.13411 -4.13412 H 409.18614 396.7838 v 4.13412 4.13411 h -4.13411 -4.13412 v 4.13411 4.13412 h -4.13412 -4.13411 v 4.13411 4.13411 h -4.13412 -4.13411 z m 33.07292,-41.34114 v -4.13412 h -8.26823 -8.26823 v 4.13412 4.13411 h 8.26823 8.26823 z m 24.80468,0 v -4.13412 h -8.26823 -8.26823 v 4.13412 4.13411 h 8.26823 8.26823 z"
       id="path20257" />
    <path
       style="fill:#fefefe;stroke-width:0.826823"
       d="m 494.3487,221.05869 v -4.13411 h -4.13412 -4.13411 v -4.13412 -4.13411 h 4.13411 4.13412 v -4.13412 -4.13412 h 4.13412 4.13411 v -4.13411 -4.13411 h -12.40235 -12.40234 v -8.26823 -8.26823 h 4.13411 4.13412 v -4.13412 -4.13411 h 4.13411 4.13412 v -4.13412 -4.13411 h 20.67057 20.67057 v 4.13411 4.13412 h 4.13411 4.13412 v 4.13411 4.13412 h 4.13412 4.13411 v 8.26823 8.26823 h -12.40235 -12.40234 v 4.13411 4.13411 h 4.13411 4.13412 v 4.13412 4.13412 h 4.13411 4.13412 v 4.13411 4.13412 h -4.13412 -4.13411 v 4.13411 4.13411 h -8.26823 -8.26823 v -4.13411 -4.13411 h 8.26823 8.26823 v -4.13412 -4.13411 h -4.13412 -4.13411 v -4.13412 -4.13412 h -12.40234 -12.40234 v 4.13412 4.13412 h -4.13411 -4.13412 v 4.13411 4.13412 h 8.26823 8.26823 v 4.13411 4.13411 h -8.26823 -8.26823 z m 16.53646,-41.34114 v -4.13412 h -8.26823 -8.26823 v 4.13412 4.13411 h 8.26823 8.26823 z m 24.80468,0 v -4.13412 h -8.26823 -8.26823 v 4.13412 4.13411 h 8.26823 8.26823 z"
       id="path20273" />
    <path
       style="fill:#fefefe;stroke-width:0.826823"
       d="m -30.683563,326.89213 v -4.13411 h -4.134114 -4.134122 v -8.26823 -8.26824 h -4.134114 -4.134113 v 8.26824 8.26823 h -4.134114 -4.134113 V 306.22155 289.6851 h 8.268227 8.268227 v -4.13411 -4.13412 h 4.134122 4.134114 v -4.13412 -4.13411 h -4.134114 -4.134122 v -4.13412 -4.13411 h 4.134122 4.134114 v 4.13411 4.13412 h 4.134113 4.134114 v 4.13411 4.13412 h 8.268227 8.268226 v -4.13412 -4.13411 h 4.1341135 4.1341134 v -4.13412 -4.13411 h 4.1341134 4.1341137 v 4.13411 4.13412 H 6.5234573 2.3893439 v 4.13411 4.13412 h 4.1341134 4.1341137 v 4.13412 4.13411 h 8.268236 8.268227 v 16.53645 16.53647 h -4.134113 -4.134114 v -8.26823 -8.26824 h -4.134113 -4.134123 v 8.26824 8.26823 H 6.5234573 2.3893439 v 4.13411 4.13411 H -1.7447695 -5.878883 v -4.13411 -4.13411 h 4.1341135 4.1341134 v -4.13412 -4.13411 H -14.147109 -30.683563 v 4.13411 4.13412 h 4.134113 4.134114 v 4.13411 4.13411 h -4.134114 -4.134113 z m 8.268227,-33.07292 v -4.13411 h -4.134114 -4.134113 v 4.13411 4.13412 h 4.134113 4.134114 z m 24.8046799,0 V 289.6851 H -1.7447695 -5.878883 v 4.13411 4.13412 h 4.1341135 4.1341134 z"
       id="path20301" />
    <path
       style="fill:#fefefe;stroke-width:0.826823"
       d="m 50.345085,326.89213 v -4.13411 h 4.134113 4.134114 v -12.40235 -12.40234 h -4.134114 -4.134113 v -12.40234 -12.40235 h 4.134113 4.134114 v 8.26823 8.26823 h 4.134113 4.134114 v -4.13411 -4.13412 h 4.134122 4.134114 v -4.13412 -4.13411 h -4.134114 -4.134122 v -4.13412 -4.13411 h 4.134122 4.134114 v 4.13411 4.13412 h 4.134113 4.134114 v 4.13411 4.13412 h 8.268227 8.268227 v -4.13412 -4.13411 h 4.134104 4.13412 v -4.13412 -4.13411 h 4.13411 4.13411 v 4.13411 4.13412 h -4.13411 -4.13411 v 4.13411 4.13412 h 4.13411 4.13411 v 4.13412 4.13411 h 4.13413 4.13411 v -8.26823 -8.26823 h 4.13411 4.13412 v 12.40235 12.40234 h -4.13412 -4.13411 v 12.40234 12.40235 h 4.13411 4.13412 v 4.13411 4.13411 h -8.26823 -8.26824 v -8.26822 -8.26823 h -4.13411 -4.13411 v 4.13411 4.13412 h -4.13412 -4.134104 v -4.13412 -4.13411 h -8.268227 -8.268227 v 4.13411 4.13412 h -4.134114 -4.134113 v -4.13412 -4.13411 h -4.134114 -4.134122 v 8.26823 8.26822 h -8.268227 -8.268227 z m 33.072917,-28.9388 v -8.26823 h -4.134114 -4.134113 v 8.26823 8.26822 h 4.134113 4.134114 z m 24.804678,0 v -8.26823 h -4.13412 -4.134104 v 8.26823 8.26822 h 4.134104 4.13412 z"
       id="path20317" />
    <path
       style="fill:#fefefe;stroke-width:0.826823"
       d="m 180.98311,326.89213 v -4.13411 h -4.13411 -4.13412 v -8.26823 -8.26823 h -4.13412 -4.13411 v -12.40235 -12.40234 h 4.13411 4.13412 v -4.13411 -4.13411 h 8.26823 8.26823 v -4.13413 -4.13411 h 8.26823 8.26822 v 4.13411 4.13413 h 8.26823 8.26823 v 4.13411 4.13411 h 4.13412 4.13411 v 12.40234 12.40235 h -4.13411 -4.13412 v 8.26823 8.26823 h -4.13412 -4.13411 v 4.13411 4.13411 h -16.53645 -16.53646 z m 33.07291,-12.40234 v -8.26823 h -4.13411 -4.13412 v 4.13412 4.13411 h -8.26822 -8.26823 v -4.13411 -4.13412 h -4.13411 -4.13412 v 8.26823 8.26823 h 16.53646 16.53645 z m -24.80468,-20.67058 v -4.13411 h -8.26823 -8.26823 v 4.13411 4.13412 h 8.26823 8.26823 z m 33.07291,0 v -4.13411 h -8.26823 -8.26823 v 4.13411 4.13412 h 8.26823 8.26823 z"
       id="path20333" />
    <path
       style="fill:#fefefe;stroke-width:0.826823"
       d="m 270.28008,326.89213 v -4.13411 h 4.13411 4.13412 v -4.13412 -4.13411 h 4.13412 4.13411 v -4.13411 -4.13412 h -8.26823 -8.26823 v -12.40235 -12.40234 h 4.13411 4.13412 v -4.13411 -4.13412 h 8.26823 8.26823 v -4.13411 -4.13412 h 8.26823 8.26822 v 4.13412 4.13411 h 8.26823 8.26823 v 4.13412 4.13411 h 4.13412 4.13411 v 12.40234 12.40235 h -8.26823 -8.26823 v 4.13412 4.13411 h 4.13411 4.13412 v 4.13411 4.13412 h 4.13412 4.13411 v 4.13411 4.13411 h -4.13411 -4.13412 v -4.13411 -4.13411 h -4.13412 -4.13411 v -4.13412 -4.13411 h -4.13411 -4.13412 v 4.13411 4.13412 h -8.26822 -8.26823 v -4.13412 -4.13411 h -4.13411 -4.13412 v 4.13411 4.13412 h -4.13411 -4.13412 v 4.13411 4.13411 h -4.13412 -4.13411 z m 41.34114,-16.53645 v -4.13412 h -8.26822 -8.26823 v 4.13412 4.13411 h 8.26823 8.26822 z m -16.53645,-16.53647 v -4.13411 h -8.26823 -8.26823 v 4.13411 4.13412 h 8.26823 8.26823 z m 33.07291,0 v -4.13411 h -8.26823 -8.26823 v 4.13411 4.13412 h 8.26823 8.26823 z"
       id="path20349" />
    <path
       style="fill:#fefefe;stroke-width:1.10243"
       d="m 370.60107,325.51409 v -5.51215 h 5.51216 5.51216 v -5.51215 -5.51216 h -5.51216 -5.51216 v -11.02431 -11.0243 h 5.51216 5.51216 v -5.51215 -5.51216 h 5.51215 5.51215 v -5.51214 -5.51216 h 16.53646 16.53645 v 5.51216 5.51214 h 5.51215 5.51215 v 5.51216 5.51215 h 5.51216 5.51216 v 11.0243 11.02431 h -5.51216 -5.51216 v 5.51216 5.51215 h 5.51216 5.51216 v 5.51215 5.51215 h -5.51216 -5.51216 v -5.51215 -5.51215 h -5.51215 -5.51215 v 5.51215 5.51215 h -5.51215 -5.51216 v -5.51215 -5.51215 h -5.51214 -5.51216 v 5.51215 5.51215 h -5.51214 -5.51216 v -5.51215 -5.51215 h -5.51215 -5.51215 v 5.51215 5.51215 h -5.51216 -5.51216 z m 33.07292,-11.0243 v -5.51216 h -5.51214 -5.51216 v 5.51216 5.51215 h 5.51216 5.51214 z m 22.04861,0 v -5.51216 h -5.51215 -5.51216 v 5.51216 5.51215 h 5.51216 5.51215 z m -22.04861,-22.04862 v -5.51215 h -11.0243 -11.0243 v 5.51215 5.51215 h 11.0243 11.0243 z m 33.07291,0 v -5.51215 h -11.0243 -11.02431 v 5.51215 5.51215 h 11.02431 11.0243 z"
       id="path20365" />
    <path
       style="fill:#fefefe;stroke-width:0.857447"
       d="m 485.00863,323.67673 v -4.28723 h -4.28724 -4.28723 v -17.14894 -17.14894 h 4.28723 4.28724 v -4.28723 -4.28724 h 4.28723 4.28724 v -4.28724 -4.28723 h 4.28723 4.28725 v 4.28723 4.28724 h 12.86169 12.8617 v -4.28724 -4.28723 h 4.28723 4.28724 v 4.28723 4.28724 h 4.28723 4.28725 v 4.28724 4.28723 h 4.28723 4.28724 v 17.14894 17.14894 h -4.28724 -4.28723 v 4.28723 4.28724 h -4.28725 -4.28723 v -4.28724 -4.28723 h -4.28724 -4.28723 v 4.28723 4.28724 h -4.28723 -4.28723 v -4.28724 -4.28723 h -4.28724 -4.28723 v 4.28723 4.28724 h -4.28723 -4.28723 v -4.28724 -4.28723 h -4.28725 -4.28723 v 4.28723 4.28724 h -4.28724 -4.28723 z m 8.57447,-8.57446 v -4.28724 h -4.28724 -4.28723 v 4.28724 4.28723 h 4.28723 4.28724 z m 17.14894,0 v -4.28724 h -4.28723 -4.28723 v 4.28724 4.28723 h 4.28723 4.28723 z m 17.14893,0 v -4.28724 h -4.28723 -4.28723 v 4.28724 4.28723 h 4.28723 4.28723 z m 17.14895,0 v -4.28724 h -4.28725 -4.28723 v 4.28724 4.28723 h 4.28723 4.28725 z m -34.29788,-25.72342 v -4.28723 h -8.57446 -8.57448 v 4.28723 4.28725 h 8.57448 8.57446 z m 25.7234,0 v -4.28723 h -8.57447 -8.57446 v 4.28723 4.28725 h 8.57446 8.57447 z"
       id="path20381" />
    <rect
       style="fill:#000000;stroke-width:1.20184"
       id="rect20383"
       width="211.66667"
       height="105.83334"
       x="356.26926"
       y="350.86981" />
    <rect
       style="fill:#000000;stroke-width:1.20184"
       id="rect20385"
       width="211.66667"
       height="105.83334"
       x="144.60298"
       y="350.86981" />
    <rect
       style="fill:#000000;stroke-width:0.84983"
       id="rect20387"
       width="105.83334"
       height="105.83334"
       x="38.76955"
       y="350.86981" />
    <rect
       style="fill:#000000;stroke-width:0.84983"
       id="rect20389"
       width="105.83334"
       height="105.83334"
       x="-67.063782"
       y="350.86981" />
    <path
       style="fill:#fefefe;stroke-width:0.826823"
       d="m -47.220025,412.05471 v -24.80468 h 4.134113 4.134114 v -4.13412 -4.13411 h 4.134123 4.134113 v -4.13412 -4.13411 h 4.134113 4.134114 v 4.13411 4.13412 h 8.268227 8.268227 v -4.13412 -4.13411 h 4.134111 4.13411 v 4.13411 4.13412 h 4.13411 4.13412 v 4.13411 4.13412 h 4.13412 4.13411 v 24.80468 24.80469 H 10.65757 2.38934 v -4.13411 -4.13411 h 4.13411 4.13412 V 416.18883 403.78649 H 6.52345 2.38934 v 4.13411 4.13411 h -4.13411 -4.134111 v 4.13412 4.13412 h -8.268227 -8.268227 v -4.13412 -4.13412 h -4.134114 -4.134113 v -4.13411 -4.13411 h -4.134113 -4.134123 v 12.40234 12.40235 h 4.134123 4.134113 v 4.13411 4.13411 h -8.268236 -8.268227 z m 41.341144,-4.13411 v -4.13411 h -8.268227 -8.268227 v 4.13411 4.13411 h 8.268227 8.268227 z m -16.536454,-16.53645 v -4.13412 h -4.134114 -4.134113 v 4.13412 4.13411 h 4.134113 4.134114 z m 24.804675,0 v -4.13412 h -4.13411 -4.134111 v 4.13412 4.13411 h 4.134111 4.13411 z"
       id="path20405" />
    <path
       style="fill:#fefefe;stroke-width:0.826823"
       d="m 58.61331,412.05471 v -24.80468 h 4.13411 4.13412 v 4.13412 4.13411 h 4.13411 4.13412 v -4.13411 -4.13412 h 4.13412 4.13411 v -4.13412 -4.13411 h -4.13411 -4.13412 v -4.13412 -4.13411 h 4.13412 4.13411 v 4.13411 4.13412 h 8.26823 8.26822 v -4.13412 -4.13411 h 4.13412 4.13411 v 4.13411 4.13412 h -4.13411 -4.13412 v 4.13411 4.13412 h 4.13412 4.13411 v 4.13412 4.13411 h 4.13411 4.13412 v -4.13411 -4.13412 h 4.13411 4.13412 v 24.80468 24.80469 h -8.26823 -8.26823 v -4.13411 -4.13411 h 4.13411 4.13412 v -8.26823 -8.26824 h -4.13412 -4.13411 v 4.13412 4.13412 h -4.13411 -4.13412 v 4.13411 4.13412 H 91.68623 83.418 v -4.13412 -4.13411 h -4.13411 -4.13412 v -4.13412 -4.13412 h -4.13412 -4.13411 v 8.26824 8.26823 h 4.13411 4.13412 v 4.13411 4.13411 H 66.88154 58.61331 Z M 83.418,399.65237 v -4.13411 h -4.13411 -4.13412 v 4.13411 4.13412 h 4.13412 4.13411 z m 24.80468,0 v -4.13411 h -4.13411 -4.13412 v 4.13411 4.13412 h 4.13412 4.13411 z"
       id="path20421" />
    <path
       id="rect20453"
       style="fill:#ffffff;stroke-width:2.64567"
       d="M 805.30273 1351.123 L 805.30273 1394.1035 L 707.05664 1394.1035 L 707.05664 1449.3672 L 658.37695 1449.3672 L 658.37695 1492.3496 L 609.21484 1492.3496 L 609.21484 1546.1641 L 577.71289 1546.1641 L 577.71289 1596.7363 L 657.93359 1596.7363 L 657.93359 1645.8594 L 707.05664 1645.8594 L 707.05664 1701.123 L 756.17969 1701.123 L 756.17969 1645.8594 L 805.30273 1645.8594 L 805.30273 1596.7363 L 897.4082 1596.7363 L 897.4082 1645.8594 L 1007.9336 1645.8594 L 1007.9336 1596.7363 L 1081.6191 1596.7363 L 1081.6191 1645.8594 L 1136.8828 1645.8594 L 1136.8828 1701.123 L 1186.0039 1701.123 L 1186.0039 1645.8594 L 1235.127 1645.8594 L 1235.127 1596.7363 L 1315.3496 1596.7363 L 1315.3496 1546.1641 L 1283.8477 1546.1641 L 1283.8477 1492.3496 L 1234.6855 1492.3496 L 1234.6855 1449.3672 L 1186.0039 1449.3672 L 1186.0039 1394.1035 L 1087.7598 1394.1035 L 1087.7598 1351.123 L 805.30273 1351.123 z M 713.03125 1496.4824 L 758.03125 1496.4824 L 758.03125 1541.4824 L 713.03125 1541.4824 L 713.03125 1496.4824 z M 853.69727 1496.4824 L 898.69727 1496.4824 L 898.69727 1541.4824 L 853.69727 1541.4824 L 853.69727 1496.4824 z M 994.36523 1496.4824 L 1039.3652 1496.4824 L 1039.3652 1541.4824 L 994.36523 1541.4824 L 994.36523 1496.4824 z M 1135.0312 1496.4824 L 1180.0312 1496.4824 L 1180.0312 1541.4824 L 1135.0312 1541.4824 L 1135.0312 1496.4824 z "
       transform="scale(0.26458333)" />
    <path
       id="rect20483"
       style="fill:#ffffff;stroke-width:2.64567"
       d="M 1605.3008 1351.123 L 1605.3008 1394.1035 L 1507.0566 1394.1035 L 1507.0566 1449.3672 L 1458.375 1449.3672 L 1458.375 1492.3496 L 1409.2129 1492.3496 L 1409.2129 1546.1641 L 1377.7109 1546.1641 L 1377.7109 1596.7363 L 1457.9336 1596.7363 L 1457.9336 1645.8594 L 1605.3008 1645.8594 L 1605.3008 1596.7363 L 1697.4062 1596.7363 L 1697.4062 1645.8594 L 1728.1094 1645.8594 L 1728.1094 1701.123 L 1777.2305 1701.123 L 1777.2305 1645.8594 L 1807.9336 1645.8594 L 1807.9336 1596.7363 L 1881.6172 1596.7363 L 1881.6172 1645.8594 L 2035.125 1645.8594 L 2035.125 1596.7363 L 2115.3477 1596.7363 L 2115.3477 1546.1641 L 2083.8457 1546.1641 L 2083.8457 1492.3496 L 2034.6836 1492.3496 L 2034.6836 1449.3672 L 1986.0039 1449.3672 L 1986.0039 1394.1035 L 1887.7578 1394.1035 L 1887.7578 1351.123 L 1605.3008 1351.123 z M 1513.0293 1496.4824 L 1558.0293 1496.4824 L 1558.0293 1541.4824 L 1513.0293 1541.4824 L 1513.0293 1496.4824 z M 1653.6953 1496.4824 L 1698.6953 1496.4824 L 1698.6953 1541.4824 L 1653.6953 1541.4824 L 1653.6953 1496.4824 z M 1794.3633 1496.4824 L 1839.3633 1496.4824 L 1839.3633 1541.4824 L 1794.3633 1541.4824 L 1794.3633 1496.4824 z M 1935.0293 1496.4824 L 1980.0293 1496.4824 L 1980.0293 1541.4824 L 1935.0293 1541.4824 L 1935.0293 1496.4824 z "
       transform="scale(0.26458333)" />
    <g
       id="g20614"
       transform="translate(-0.32818604,-93.2663)">
      <text
         xml:space="preserve"
         style="font-style:normal;font-weight:normal;font-size:10.5833px;line-height:1.25;font-family:sans-serif;text-align:center;text-anchor:middle;fill:#000000;fill-opacity:1;stroke:none;stroke-width:0.264583"
         x="573.19403"
         y="287.68008"
         id="text20601"><tspan
           sodipodi:role="line"
           x="573.19403"
           y="287.68008"
           style="text-align:start;text-anchor:start;stroke-width:0.264583"
           id="tspan20597">Largura: Proporcional</tspan><tspan
           sodipodi:role="line"
           x="573.19403"
           y="300.90921"
           style="text-align:start;text-anchor:start;stroke-width:0.264583"
           id="tspan20599">Altura: 70px</tspan></text>
      <text
         xml:space="preserve"
         style="font-style:normal;font-weight:normal;font-size:10.5833px;line-height:1.25;font-family:sans-serif;fill:#000000;fill-opacity:1;stroke:none;stroke-width:0.264583"
         x="604.96716"
         y="275.77493"
         id="text20607"><tspan
           sodipodi:role="line"
           id="tspan20605"
           x="604.96716"
           y="275.77493"
           style="font-style:normal;font-variant:normal;font-weight:bold;font-stretch:normal;font-family:sans-serif;-inkscape-font-specification:'sans-serif Bold';stroke-width:0.264583">Enemies</tspan></text>
    </g>
    <g
       id="g20627"
       transform="translate(0,-92.377186)">
      <text
         xml:space="preserve"
         style="font-style:normal;font-weight:normal;font-size:10.5833px;line-height:1.25;font-family:sans-serif;text-align:center;text-anchor:middle;fill:#000000;fill-opacity:1;stroke:none;stroke-width:0.264583"
         x="572.86584"
         y="393.51324"
         id="text20589"><tspan
           sodipodi:role="line"
           x="572.86584"
           y="393.51324"
           style="text-align:start;text-anchor:start;stroke-width:0.264583"
           id="tspan20591">Largura: 190px</tspan><tspan
           sodipodi:role="line"
           x="572.86584"
           y="406.74237"
           style="text-align:start;text-anchor:start;stroke-width:0.264583"
           id="tspan20593">Altura: 90px</tspan></text>
      <text
         xml:space="preserve"
         style="font-style:normal;font-weight:normal;font-size:10.5833px;line-height:1.25;font-family:sans-serif;fill:#000000;fill-opacity:1;stroke:none;stroke-width:0.264583"
         x="580.284"
         y="379.83041"
         id="text20620"><tspan
           sodipodi:role="line"
           id="tspan20618"
           x="580.284"
           y="379.83041"
           style="font-style:normal;font-variant:normal;font-weight:bold;font-stretch:normal;font-family:sans-serif;-inkscape-font-specification:'sans-serif Bold';stroke-width:0.264583">Mothership</tspan></text>
    </g>
    <rect
       style="fill:#000000;stroke-width:0.13985"
       id="rect20757"
       width="21.091869"
       height="42.333332"
       x="665.52979"
       y="65.119896" />
    <rect
       style="fill:#000000;stroke-width:0.13985"
       id="rect20737"
       width="21.091869"
       height="42.333332"
       x="644.43793"
       y="65.119896" />
    <rect
       style="fill:#000000;stroke-width:0.13985"
       id="rect20719"
       width="21.091869"
       height="42.333332"
       x="623.34589"
       y="65.119896" />
    <rect
       style="fill:#000000;stroke-width:0.13985"
       id="rect20701"
       width="21.091869"
       height="42.333332"
       x="602.25397"
       y="65.119896" />
    <g
       id="g20995"
       transform="matrix(0.97122215,0,0,0.97122215,30.914584,-45.475714)">
      <rect
         style="fill:#ffffff;stroke-width:0.313284"
         id="rect20643"
         width="4.4527283"
         height="4.4685183"
         x="596.90057"
         y="119.32107" />
      <rect
         style="fill:#ffffff;stroke-width:0.313284"
         id="rect20645"
         width="4.4527283"
         height="4.4685183"
         x="592.21344"
         y="124.02478" />
      <rect
         style="fill:#ffffff;stroke-width:0.313284"
         id="rect20647"
         width="4.4527283"
         height="4.4685183"
         x="596.90057"
         y="128.72849" />
      <rect
         style="fill:#ffffff;stroke-width:0.313284"
         id="rect20649"
         width="4.4527283"
         height="4.4685183"
         x="601.58765"
         y="133.43219" />
      <rect
         style="fill:#ffffff;stroke-width:0.313284"
         id="rect20651"
         width="4.4527283"
         height="4.4685183"
         x="596.90057"
         y="138.13591" />
      <rect
         style="fill:#ffffff;stroke-width:0.313284"
         id="rect20653"
         width="4.4527283"
         height="4.4685183"
         x="592.21344"
         y="142.8396" />
      <rect
         style="fill:#ffffff;stroke-width:0.313284"
         id="rect20655"
         width="4.4527283"
         height="4.4685183"
         x="596.90057"
         y="147.54332" />
    </g>
    <g
       id="g21004"
       transform="matrix(0.97122215,0,0,0.97122215,31.521535,-45.475714)">
      <rect
         style="fill:#ffffff;stroke-width:0.313284"
         id="rect20657"
         width="4.4527283"
         height="4.4685183"
         x="613.30542"
         y="119.32107" />
      <rect
         style="fill:#ffffff;stroke-width:0.313284"
         id="rect20659"
         width="4.4527283"
         height="4.4685183"
         x="617.99249"
         y="124.02478" />
      <rect
         style="fill:#ffffff;stroke-width:0.313284"
         id="rect20661"
         width="4.4527283"
         height="4.4685183"
         x="622.67957"
         y="128.72849" />
      <rect
         style="fill:#ffffff;stroke-width:0.313284"
         id="rect20663"
         width="4.4527283"
         height="4.4685183"
         x="617.99249"
         y="133.43219" />
      <rect
         style="fill:#ffffff;stroke-width:0.313284"
         id="rect20665"
         width="4.4527283"
         height="4.4685183"
         x="613.30542"
         y="138.13591" />
      <rect
         style="fill:#ffffff;stroke-width:0.313284"
         id="rect20667"
         width="4.4527283"
         height="4.4685183"
         x="617.99249"
         y="142.8396" />
      <rect
         style="fill:#ffffff;stroke-width:0.313284"
         id="rect20669"
         width="4.4527283"
         height="4.4685183"
         x="622.67957"
         y="147.54332" />
    </g>
    <g
       id="g21014"
       transform="matrix(0.97122215,0,0,0.97122215,32.128607,-45.475714)">
      <rect
         style="fill:#ffffff;stroke-width:0.313284"
         id="rect20671"
         width="4.4527283"
         height="4.4685183"
         x="639.08447"
         y="119.32107" />
      <rect
         style="fill:#ffffff;stroke-width:0.313284"
         id="rect20673"
         width="4.4527283"
         height="4.4685183"
         x="643.77155"
         y="124.02478" />
      <rect
         style="fill:#ffffff;stroke-width:0.313284"
         id="rect20675"
         width="4.4527283"
         height="4.4685183"
         x="639.08447"
         y="128.72849" />
      <rect
         style="fill:#ffffff;stroke-width:0.313284"
         id="rect20677"
         width="4.4527283"
         height="4.4685183"
         x="634.39734"
         y="133.43219" />
      <rect
         style="fill:#ffffff;stroke-width:0.313284"
         id="rect20679"
         width="4.4527283"
         height="4.4685183"
         x="639.08447"
         y="138.13591" />
      <rect
         style="fill:#ffffff;stroke-width:0.313284"
         id="rect20681"
         width="4.4527283"
         height="4.4685183"
         x="643.77155"
         y="142.8396" />
      <rect
         style="fill:#ffffff;stroke-width:0.313284"
         id="rect20683"
         width="4.4527283"
         height="4.4685183"
         x="639.08447"
         y="147.54332" />
      <rect
         style="fill:#ffffff;stroke-width:0.313284"
         id="rect20685"
         width="4.4527283"
         height="4.4685183"
         x="639.08447"
         y="147.54332" />
    </g>
    <g
       id="g21023"
       transform="matrix(0.97122215,0,0,0.97122215,32.735467,-45.475714)">
      <rect
         style="fill:#ffffff;stroke-width:0.313284"
         id="rect20687"
         width="4.4527283"
         height="4.4685183"
         x="664.86353"
         y="119.32107" />
      <rect
         style="fill:#ffffff;stroke-width:0.313284"
         id="rect20689"
         width="4.4527283"
         height="4.4685183"
         x="660.17639"
         y="124.02478" />
      <rect
         style="fill:#ffffff;stroke-width:0.313284"
         id="rect20691"
         width="4.4527283"
         height="4.4685183"
         x="655.48932"
         y="128.72849" />
      <rect
         style="fill:#ffffff;stroke-width:0.313284"
         id="rect20693"
         width="4.4527283"
         height="4.4685183"
         x="660.17639"
         y="133.43219" />
      <rect
         style="fill:#ffffff;stroke-width:0.313284"
         id="rect20695"
         width="4.4527283"
         height="4.4685183"
         x="664.86353"
         y="138.13591" />
      <rect
         style="fill:#ffffff;stroke-width:0.313284"
         id="rect20697"
         width="4.4527283"
         height="4.4685183"
         x="660.17639"
         y="142.8396" />
      <rect
         style="fill:#ffffff;stroke-width:0.313284"
         id="rect20699"
         width="4.4527283"
         height="4.4685183"
         x="655.48932"
         y="147.54332" />
    </g>
    <rect
       style="fill:#000000;stroke-width:0.863065"
       id="rect21089"
       width="66.145836"
       height="66.145836"
       x="644.43793"
       y="370.71356" />
    <rect
       style="fill:#000000;stroke-width:0.863065"
       id="rect21087"
       width="66.145836"
       height="66.145836"
       x="578.29187"
       y="370.71356" />
    <path
       id="rect21056"
       style="fill:#ffffff;stroke-width:1.01316"
       d="m 598.74179,377.32815 v 7.39335 h -6.442 v 6.44198 h -7.39333 v 25.24601 h 7.39333 v 6.44146 h 6.442 v 7.39387 h 25.24601 v -7.39387 h 6.44147 v -6.44146 h 7.39386 v -25.24601 h -7.39386 v -6.44198 h -6.44147 v -7.39335 z m 3.67109,4.07882 h 17.90383 v 6.7138 h 6.7138 v 6.7138 h 6.7138 v 17.90382 h -6.7138 v 6.7138 h -6.7138 v 6.71381 h -17.90383 v -6.71381 h -6.7138 v -6.7138 h -6.7138 v -17.90382 h 6.7138 v -6.7138 h 6.7138 z" />
    <path
       id="path21070"
       style="fill:#ffffff;stroke-width:1.01316"
       d="m 664.88813,377.32815 v 7.39335 h -6.4425 v 6.44198 h -7.39333 v 25.24601 h 7.39333 v 6.44146 h 6.4425 v 7.39387 h 25.2455 v -7.39387 h 6.44147 v -6.44146 h 7.39386 v -25.24601 h -7.39386 v -6.44198 h -6.44147 v -7.39335 z m 3.67109,4.07882 h 17.90332 v 6.7138 h 6.7138 v 6.7138 h 6.71381 v 17.90382 h -6.71381 v 6.7138 h -6.7138 v 6.71381 h -17.90332 v -6.71381 h -6.7138 v -6.7138 h -6.7138 v -17.90382 h 6.7138 v -6.7138 h 6.7138 z m 4.47572,4.47621 v 5.9676 h -7.46004 v 7.46001 h -5.96757 v 8.95139 h 5.96757 v 7.46001 h 7.46004 v 5.96759 h 8.95188 v -5.96759 h 7.45951 v -7.46001 h 5.9681 v -8.95139 h -5.9681 v -7.46001 h -7.45951 v -5.9676 z" />
  </g>
</svg>
